# xmcd CD database file
# Copyright (C) 1993-1998 Ti Kan
#
# Track frame offsets:
#  150
#  14854
#  35552
#  52881
#  72055
#  76982
#  99593
#  118656
#  140528
#  152077
#  174824
#  182385
#  200705
#  214576
#
# Disc length: 3325 seconds
#
# Revision: 1
# Processed by: cddbd v1.4b41PL1 Copyright (c) Steve Scherf et al.
# Submitted via: CDWizzard Release:4.35
#
DISCID=ba0cfb0e
DTITLE=Kill Switch... Klick - Alt.
DYEAR=1900
DGENRE=
TTITLE0=Produkt (Mass Market Mix)
TTITLE1=Shitkicker (Sudden Vertigo)
TTITLE2=Fascist Smash (Below the Belt)
TTITLE3=Your Money, Your Pain (Dollars and Cents)
TTITLE4=The American
TTITLE5=Anger (Plus)
TTITLE6=Diabolikal
TTITLE7=Konsonent
TTITLE8=Memories and Discontent
TTITLE9=Atrophy
TTITLE10=Rise
TTITLE11=A/B Continuity
TTITLE12=Kontorted (Hyper)
TTITLE13=Thick
EXTD=
EXTT0=
EXTT1=
EXTT2=
EXTT3=
EXTT4=
EXTT5=
EXTT6=
EXTT7=
EXTT8=
EXTT9=
EXTT10=
EXTT11=
EXTT12=
EXTT13=
PLAYORDER=
